<svg width="16" height="14" viewBox="0 0 16 14" fill="none" xmlns="http://www.w3.org/2000/svg">
<rect width="16" height="14" fill="#E5E5E5"/>
<g clip-path="url(#clip0_0_1)">
<rect x="-317" y="-385" width="375" height="812" rx="20" fill="#0064D2"/>
<path d="M-317 -131C-317 -147.569 -303.569 -161 -287 -161H28C44.5685 -161 58 -147.569 58 -131V427H-317V-131Z" fill="white"/>
<mask id="path-3-outside-1_0_1" maskUnits="userSpaceOnUse" x="0" y="0" width="8" height="14" fill="black">
<rect fill="white" width="8" height="14"/>
<path d="M3.72721 1.54577L3.72721 11.1377L1.93112 9.34169C1.71814 9.12868 1.37277 9.12868 1.15976 9.34169C0.946747 9.55466 0.946747 9.90004 1.15976 10.113L3.88695 12.8402C4.09992 13.0533 4.4453 13.0533 4.65831 12.8402L7.3855 10.113C7.492 10.0065 7.54528 9.86695 7.54528 9.72735C7.54528 9.58775 7.492 9.44816 7.3855 9.34169C7.17252 9.12868 6.82715 9.12868 6.61414 9.34169L4.81808 11.1377L4.81808 1.54577C4.81808 1.24454 4.57387 1.00033 4.27265 1.00033C3.97142 1.00033 3.72721 1.24454 3.72721 1.54577Z"/>
</mask>
<path d="M3.72721 1.54577L3.72721 11.1377L1.93112 9.34169C1.71814 9.12868 1.37277 9.12868 1.15976 9.34169C0.946747 9.55466 0.946747 9.90004 1.15976 10.113L3.88695 12.8402C4.09992 13.0533 4.4453 13.0533 4.65831 12.8402L7.3855 10.113C7.492 10.0065 7.54528 9.86695 7.54528 9.72735C7.54528 9.58775 7.492 9.44816 7.3855 9.34169C7.17252 9.12868 6.82715 9.12868 6.61414 9.34169L4.81808 11.1377L4.81808 1.54577C4.81808 1.24454 4.57387 1.00033 4.27265 1.00033C3.97142 1.00033 3.72721 1.24454 3.72721 1.54577Z" fill="#0064D2"/>
<path d="M3.72721 1.54577L3.72721 11.1377L1.93112 9.34169C1.71814 9.12868 1.37277 9.12868 1.15976 9.34169C0.946747 9.55466 0.946747 9.90004 1.15976 10.113L3.88695 12.8402C4.09992 13.0533 4.4453 13.0533 4.65831 12.8402L7.3855 10.113C7.492 10.0065 7.54528 9.86695 7.54528 9.72735C7.54528 9.58775 7.492 9.44816 7.3855 9.34169C7.17252 9.12868 6.82715 9.12868 6.61414 9.34169L4.81808 11.1377L4.81808 1.54577C4.81808 1.24454 4.57387 1.00033 4.27265 1.00033C3.97142 1.00033 3.72721 1.24454 3.72721 1.54577Z" stroke="#0064D2" stroke-width="0.4" mask="url(#path-3-outside-1_0_1)"/>
<mask id="path-4-outside-2_0_1" maskUnits="userSpaceOnUse" x="7.45471" y="-0.000488281" width="8" height="14" fill="black">
<rect fill="white" x="7.45471" y="-0.000488281" width="8" height="14"/>
<path d="M8.61444 3.88684C8.40147 4.09982 8.40147 4.44519 8.61444 4.6582C8.82742 4.87121 9.17279 4.87121 9.3858 4.6582L11.1819 2.86211V12.4541C11.1819 12.7553 11.4261 12.9995 11.7273 12.9995C12.0286 12.9995 12.2728 12.7553 12.2728 12.4541V2.86211L14.0689 4.65816C14.2818 4.87118 14.6272 4.87118 14.8402 4.65816C14.9467 4.55169 15 4.4121 15 4.2725C15 4.13291 14.9467 3.99331 14.8402 3.88684L12.113 1.15965C11.9 0.94664 11.5546 0.94664 11.3416 1.15965L8.61444 3.88684Z"/>
</mask>
<path d="M8.61444 3.88684C8.40147 4.09982 8.40147 4.44519 8.61444 4.6582C8.82742 4.87121 9.17279 4.87121 9.3858 4.6582L11.1819 2.86211V12.4541C11.1819 12.7553 11.4261 12.9995 11.7273 12.9995C12.0286 12.9995 12.2728 12.7553 12.2728 12.4541V2.86211L14.0689 4.65816C14.2818 4.87118 14.6272 4.87118 14.8402 4.65816C14.9467 4.55169 15 4.4121 15 4.2725C15 4.13291 14.9467 3.99331 14.8402 3.88684L12.113 1.15965C11.9 0.94664 11.5546 0.94664 11.3416 1.15965L8.61444 3.88684Z" fill="#0064D2"/>
<path d="M8.61444 3.88684C8.40147 4.09982 8.40147 4.44519 8.61444 4.6582C8.82742 4.87121 9.17279 4.87121 9.3858 4.6582L11.1819 2.86211V12.4541C11.1819 12.7553 11.4261 12.9995 11.7273 12.9995C12.0286 12.9995 12.2728 12.7553 12.2728 12.4541V2.86211L14.0689 4.65816C14.2818 4.87118 14.6272 4.87118 14.8402 4.65816C14.9467 4.55169 15 4.4121 15 4.2725C15 4.13291 14.9467 3.99331 14.8402 3.88684L12.113 1.15965C11.9 0.94664 11.5546 0.94664 11.3416 1.15965L8.61444 3.88684Z" stroke="#0064D2" stroke-width="0.4" mask="url(#path-4-outside-2_0_1)"/>
<circle cx="8" cy="7" r="11.5" stroke="#E6E8E9"/>
</g>
<defs>
<clipPath id="clip0_0_1">
<rect x="-317" y="-385" width="375" height="812" rx="20" fill="white"/>
</clipPath>
</defs>
</svg>
